HIERARCHY
ROOT Hips
{
	OFFSET 0.000000 0.000000 0.000000
	CHANNELS 6 Xposition Yposition Zposition Zrotation Yrotation Xrotation 
	JOINT LeftUpLeg_virtual
	{
		OFFSET 0.000000 0.000000 0.000000
		CHANNELS 3 Zrotation Yrotation Xrotation
		JOINT LeftUpLeg
		{
			OFFSET 8.479694 -4.795517 -0.379053
			CHANNELS 3 Zrotation Yrotation Xrotation
			JOINT LeftLeg
			{
				OFFSET 0.485052 -32.551468 0.112863
				CHANNELS 3 Zrotation Yrotation Xrotation
				JOINT LeftFoot
				{
					OFFSET 0.438033 -32.635670 -3.012641
					CHANNELS 3 Zrotation Yrotation Xrotation
					JOINT LeftToeBase
					{
						OFFSET 0.970169 -13.225353 11.864223
						CHANNELS 3 Zrotation Yrotation Xrotation
						End Site
						{
							OFFSET 0.000000 0.000000 0.000000
						}
					}
				}
			}
		}
	}
	JOINT RightUpLeg_virtual
	{
		OFFSET 0.000000 0.000000 0.000000
		CHANNELS 3 Zrotation Yrotation Xrotation
		JOINT RightUpLeg
		{
			OFFSET -8.479694 -4.795517 -0.379053
			CHANNELS 3 Zrotation Yrotation Xrotation
			JOINT RightLeg
			{
				OFFSET -0.484100 -32.551483 0.112903
				CHANNELS 3 Zrotation Yrotation Xrotation
				JOINT RightFoot
				{
					OFFSET -0.438985 -32.635651 -3.012681
					CHANNELS 3 Zrotation Yrotation Xrotation
					JOINT RightToeBase
					{
						OFFSET -0.970169 -13.225354 11.864223
						CHANNELS 3 Zrotation Yrotation Xrotation
						End Site
						{
							OFFSET 0.000000 0.000000 0.000000
						}
					}
				}
			}
		}
	}
	JOINT Spine_virtual
	{
		OFFSET 0.000000 0.000000 0.000000
		CHANNELS 3 Zrotation Yrotation Xrotation
		JOINT Spine
		{
			OFFSET 0.000000 7.722015 1.166203
			CHANNELS 3 Zrotation Yrotation Xrotation
			JOINT Spine1
			{
				OFFSET 0.000000 12.024086 0.248766
				CHANNELS 3 Zrotation Yrotation Xrotation
				JOINT Spine2
				{
					OFFSET -0.000000 11.503036 -0.491240
					CHANNELS 3 Zrotation Yrotation Xrotation
					JOINT Neck_virtual
					{
						OFFSET 0.000000 0.000000 0.000000
						CHANNELS 3 Zrotation Yrotation Xrotation
						JOINT Neck
						{
							OFFSET 0.000000 18.430687 -3.123054
							CHANNELS 3 Zrotation Yrotation Xrotation
							JOINT Head
							{
								OFFSET -0.000000 9.051071 1.034021
								CHANNELS 3 Zrotation Yrotation Xrotation
								End Site
								{
									OFFSET 0.000000 0.000000 0.000000
								}
							}
						}
					}
					JOINT LeftShoulder_virtual
					{
						OFFSET 0.000000 0.000000 0.000000
						CHANNELS 3 Zrotation Yrotation Xrotation
						JOINT LeftShoulder
						{
							OFFSET 6.197824 13.665230 -4.064723
							CHANNELS 3 Zrotation Yrotation Xrotation
							JOINT LeftArm
							{
								OFFSET 7.778132 -0.187073 -1.709282
								CHANNELS 3 Zrotation Yrotation Xrotation
								JOINT LeftForeArm
								{
									OFFSET 21.954697 0.000000 -2.041093
									CHANNELS 3 Zrotation Yrotation Xrotation
									JOINT LeftHand
									{
										OFFSET 22.992908 0.000000 -0.870901
										CHANNELS 3 Zrotation Yrotation Xrotation
										End Site
										{
											OFFSET 0.000000 0.000000 0.000000
										}
									}
								}
							}
						}
					}
					JOINT RightShoulder_virtual
					{
						OFFSET 0.000000 0.000000 0.000000
						CHANNELS 3 Zrotation Yrotation Xrotation
						JOINT RightShoulder
						{
							OFFSET -6.197824 13.665230 -4.064723
							CHANNELS 3 Zrotation Yrotation Xrotation
							JOINT RightArm
							{
								OFFSET -7.778132 -0.187073 -1.709282
								CHANNELS 3 Zrotation Yrotation Xrotation
								JOINT RightForeArm
								{
									OFFSET -21.954697 0.000000 -2.041093
									CHANNELS 3 Zrotation Yrotation Xrotation
									JOINT RightHand
									{
										OFFSET -22.992908 0.000000 -0.870901
										CHANNELS 3 Zrotation Yrotation Xrotation
										End Site
										{
											OFFSET 0.000000 0.000000 0.000000
										}
									}
								}
							}
						}
					}
				}
			}
		}
	}
}
MOTION
Frames: 5
Frame Time: 0.033333
70.920769 82.204735 -4.840075 179.972916 1.124329 -179.910147 -5.142172 2.114752 10.239812 6.432984 -7.542380 -23.897321 6.831184 7.911141 23.959192 -7.590141 -3.901853 -3.775504 0.000000 0.000000 0.000000 -0.667964 1.757691 10.496009 0.222970 -3.142806 -12.035937 -3.000182 0.916018 19.594853 6.736283 11.623472 -11.874299 0.000000 0.000000 0.000000 2.588349 3.891804 0.851444 -4.534957 0.555932 -0.763869 0.349103 -3.895808 4.251269 -0.028831 0.135638 0.018709 0.274713 -2.853937 4.838564 -0.339987 1.030976 -17.688576 0.000000 0.000000 0.000000 1.560786 -1.968646 2.115872 13.711564 1.673773 -5.004028 -17.333767 5.771081 -36.755953 -8.967938 -19.735651 -5.742608 0.000000 0.000000 0.000000 -2.357110 -0.746769 1.570292 6.716100 -7.168774 -8.581274 30.120233 -13.349099 -42.263322 -1.121490 22.469108 -7.671287 0.000000 0.000000 0.000000 
70.931580 82.198746 -4.839117 179.942167 1.196452 -179.923138 -5.097990 2.188518 10.240913 6.408333 -7.531260 -23.918329 6.816025 8.139477 23.960756 -7.591126 -3.912255 -3.836045 0.000000 0.000000 0.000000 -0.685895 1.915982 10.544782 0.150433 -2.761293 -11.960258 -3.144760 0.903246 19.580107 6.530089 11.440279 -12.123044 0.000000 0.000000 0.000000 2.587641 3.952131 0.852978 -4.540771 0.588846 -0.732774 0.347293 -3.875492 4.258342 -0.016439 -0.017446 0.016858 0.267867 -2.817707 4.856473 -0.333461 1.066924 -17.668661 0.000000 0.000000 0.000000 1.553558 -1.929066 2.094535 13.730597 1.733680 -4.994131 -17.380028 5.819873 -36.809238 -9.026431 -19.716360 -5.650285 0.000000 0.000000 0.000000 -2.370317 -0.730425 1.586493 6.689264 -6.968719 -8.569656 30.143524 -13.463793 -42.346258 -1.062332 22.473144 -7.591365 0.000000 0.000000 0.000000 
70.955971 82.199112 -4.838639 -179.973640 1.234986 -179.929586 -5.081383 2.221578 10.225655 6.449038 -7.434391 -23.930859 6.780885 8.042190 23.972432 -7.655300 -3.973065 -3.848021 0.000000 0.000000 0.000000 -0.612726 1.951847 10.545273 0.184320 -2.699392 -11.952187 -3.136628 0.854679 19.560671 6.512970 11.430494 -12.129865 0.000000 0.000000 0.000000 2.639269 3.916053 0.868154 -4.512218 0.592654 -0.770275 0.370030 -3.846638 4.266989 0.008810 0.016562 0.023523 0.222644 -2.931701 4.838973 -0.310500 1.049430 -17.679516 0.000000 0.000000 0.000000 1.504397 -1.943848 2.061998 13.715959 1.706784 -5.135636 -17.383159 5.915228 -36.640659 -9.038904 -19.690078 -5.642704 0.000000 0.000000 0.000000 -2.433851 -0.717046 1.562788 6.798169 -6.962279 -8.525222 30.110841 -13.376494 -42.214800 -1.072681 22.439200 -7.585652 0.000000 0.000000 0.000000 
70.994873 82.198807 -4.834344 179.927031 1.122768 -179.937673 -5.136829 2.143100 10.234090 6.448271 -7.509253 -23.938095 6.789752 8.019933 23.962645 -7.628409 -3.927997 -3.848914 0.000000 0.000000 0.000000 -0.692798 1.857581 10.535138 0.169011 -2.798824 -11.966603 -3.144068 0.911384 19.559447 6.510105 11.447559 -12.157380 0.000000 0.000000 0.000000 2.562369 3.914269 0.870867 -4.560004 0.573423 -0.741637 0.399467 -3.876000 4.262392 -0.038159 -0.002558 -0.001329 0.235060 -2.859231 4.886269 -0.343745 1.048947 -17.663866 0.000000 0.000000 0.000000 1.523773 -1.951593 2.146694 13.709432 1.682357 -4.925706 -17.448676 5.776947 -36.694857 -8.942381 -19.701404 -5.615703 0.000000 0.000000 0.000000 -2.364823 -0.779514 1.622864 6.797955 -6.999966 -8.564737 30.163765 -13.258402 -42.029603 -1.104249 22.405913 -7.678598 0.000000 0.000000 0.000000 
71.042542 82.199257 -4.827713 179.958204 1.254841 -179.888687 -5.112003 2.220838 10.219299 6.496149 -7.492753 -23.989842 6.786262 7.986496 23.951819 -7.633976 -3.905575 -3.858856 0.000000 0.000000 0.000000 -0.689581 1.964788 10.513843 0.238115 -2.772209 -11.977833 -3.149309 0.832551 19.572313 6.501688 11.466299 -12.134992 0.000000 0.000000 0.000000 2.608975 3.933465 0.817898 -4.547767 0.607438 -0.735391 0.314727 -3.838174 4.263130 -0.008732 0.025315 0.085421 0.266209 -2.837702 4.822493 -0.342030 1.039647 -17.665246 0.000000 0.000000 0.000000 1.552346 -1.901170 2.093139 13.674001 1.674694 -5.039520 -17.390205 5.805555 -36.727030 -8.966017 -19.652802 -5.699848 0.000000 0.000000 0.000000 -2.366009 -0.741410 1.559709 6.792016 -6.958000 -8.541413 30.158707 -13.295903 -41.991054 -1.083227 22.429394 -7.624189 0.000000 0.000000 0.000000 
